<?xml version="1.0" encoding="iso-8859-1"?>
<!-- Uploaded to: SVG Repo, www.svgrepo.com, Generator: SVG Repo Mixer Tools -->
<svg version="1.1" id="Layer_1" xmlns="http://www.w3.org/2000/svg" xmlns:xlink="http://www.w3.org/1999/xlink" 
	 viewBox="0 0 469.333 469.333" xml:space="preserve">
<path style="fill:#D94452;" d="M309.333,11.598h128c11.787,0,21.333,9.547,21.333,21.333v165.333c0,14.667-12,26.667-26.667,26.667
	H309.333V11.598z"/>
<rect x="234.667" y="11.598" style="fill:#FFFFFF;" width="74.667" height="213.333"/>
<path style="fill:#F7C76A;" d="M10.667,118.265c0,17.675,14.325,32,32,32h10.667c-17.675,0-32,14.325-32,32s14.325,32,32,32h85.333
	v92.715c0,16.544,13.408,29.952,29.952,29.952c13.739,0,25.717-9.355,29.056-22.688l4.992-49.312L224,214.265h10.667v-192H53.333
	c-17.675,0-32,14.325-32,32s14.325,32,32,32H42.667C24.992,86.265,10.667,100.59,10.667,118.265z"/>
<path d="M437.333,0.932H234.667C228.779,0.932,224,5.7,224,11.598H53.333c-23.531,0-42.667,19.136-42.667,42.667
	c0,10.443,3.776,20.021,10.016,27.435C8.299,89.177,0,102.777,0,118.265s8.299,29.088,20.683,36.565
	c-6.24,7.413-10.016,16.992-10.016,27.435c0,23.531,19.136,42.667,42.667,42.667H128v82.048c0,22.4,18.219,40.619,40.619,40.619
	c18.667,0,34.88-12.661,39.403-30.773c0.128-0.491,0.213-1.003,0.267-1.515l4.832-47.712l14.613-34.709
	c1.877,1.632,4.256,2.709,6.933,2.709H432c20.587,0,37.333-16.747,37.333-37.333V32.932C469.333,15.289,454.976,0.932,437.333,0.932
	z M214.165,210.126l-21.333,50.667c-0.405,0.971-0.672,2.005-0.779,3.061l-4.907,48.459c-2.368,8.256-9.899,13.952-18.528,13.952
	c-10.635,0-19.285-8.651-19.285-19.285v-92.715c0-5.899-4.779-10.667-10.667-10.667H53.333C41.568,203.598,32,194.03,32,182.265
	s9.568-21.333,21.333-21.333c5.888,0,10.667-4.768,10.667-10.667s-4.779-10.667-10.667-10.667H42.667
	c-11.765,0-21.333-9.568-21.333-21.333c0-11.765,9.568-21.333,21.333-21.333h10.667C59.221,96.932,64,92.164,64,86.265
	c0-5.899-4.779-10.667-10.667-10.667C41.568,75.598,32,66.03,32,54.265s9.568-21.333,21.333-21.333H224v170.667
	C219.712,203.598,215.829,206.169,214.165,210.126z M245.333,22.265h53.333v192h-53.333V22.265z M448,198.265
	c0,8.821-7.179,16-16,16H320v-192h117.333c5.888,0,10.667,4.779,10.667,10.667V198.265z"/>
<circle cx="357.333" cy="54.265" r="16"/>
<path d="M248.917,350.777c-5.461-2.432-8.192-8.171-6.763-13.024c1.419-4.875,6.795-8.267,12.555-7.456
	c5.909,0.843,9.813,6.891,7.947,13.355C260.757,350.084,254.208,353.156,248.917,350.777z"/>
<path d="M220.608,387.353c-3.424-4.651-3.061-11.072,0.619-14.581c3.499-3.659,10.059-3.787,14.635-0.256
	c4.747,3.669,4.939,10.699,0.288,15.509C231.285,392.665,224.181,392.185,220.608,387.353z"/>
<path d="M178.005,405.273c-0.715-5.952,2.869-10.933,7.733-12.416c4.971-1.056,10.517,1.429,12.853,7.029
	c2.229,5.259-0.853,12.117-7.413,13.6C184.704,415.385,178.677,411.022,178.005,405.273z"/>
<path d="M132.085,399.886c2.336-5.6,7.883-8.085,12.853-7.029c4.864,1.483,8.448,6.464,7.733,12.416
	c-0.672,5.739-6.699,10.101-13.163,8.213C132.939,412.004,129.856,405.156,132.085,399.886z"/>
<path d="M94.805,372.516c4.565-3.531,11.125-3.413,14.635,0.256c3.68,3.509,4.043,9.931,0.619,14.581
	c-3.573,4.832-10.677,5.312-15.531,0.672C89.867,383.214,90.059,376.196,94.805,372.516z"/>
<path d="M75.968,330.297c5.76-0.811,11.136,2.581,12.555,7.456c1.429,4.853-1.312,10.592-6.763,13.024
	c-5.301,2.379-11.84-0.683-13.739-7.125C66.155,337.188,70.059,331.14,75.968,330.297z"/>
<path d="M305.131,349.582c-5.76-1.472-9.013-6.816-8.416-12.171c0.853-5.312,6.229-9.259,11.957-8.832
	c6.027,0.459,10.101,5.963,9.088,12.299C317.003,347.246,310.773,351.033,305.131,349.582z"/>
<path d="M287.904,390.905c-5.088-3.211-6.507-9.312-4.181-14.155c2.325-4.843,8.651-6.944,14.101-4.704s7.637,8.747,4.843,14.517
	C299.851,392.324,292.768,394.009,287.904,390.905z"/>
<path d="M258.837,424.985c-3.765-4.523-3.616-11.147,0.384-14.752c3.68-3.915,10.208-4.107,14.731-0.277
	c4.48,3.787,4.704,10.784,0.299,15.424C269.515,429.71,262.603,429.518,258.837,424.985z"/>
<path d="M220.715,448.526c-2.144-5.333-0.043-11.776,4.811-14.08c4.949-2.133,10.933-0.832,14.133,4.32
	c3.029,4.843,1.387,12.096-4.48,14.709C229.387,456.238,222.955,454.126,220.715,448.526z"/>
<path d="M177.152,459.001c-0.384-5.749,3.627-10.891,8.928-11.851c5.355-0.629,10.709,2.869,12.117,8.544
	c1.429,5.76-2.443,11.744-8.821,12.533C183.051,469.337,177.557,465.006,177.152,459.001z"/>
<path d="M132.48,455.684c1.408-5.675,6.763-9.163,12.117-8.544c5.301,0.96,9.312,6.101,8.928,11.851
	c-0.416,5.995-5.899,10.336-12.224,9.227C134.923,467.438,131.051,461.444,132.48,455.684z"/>
<path d="M91.019,438.766c3.2-5.152,9.184-6.453,14.133-4.32c4.853,2.293,6.955,8.736,4.811,14.08
	c-2.251,5.6-8.683,7.712-14.464,4.949C89.621,450.862,87.989,443.62,91.019,438.766z"/>
<path d="M56.725,409.956c4.512-3.819,11.051-3.637,14.731,0.277c3.989,3.605,4.149,10.219,0.384,14.752
	c-3.765,4.523-10.677,4.715-15.403,0.395C52.021,420.74,52.245,413.742,56.725,409.956z"/>
<path d="M32.843,372.046c5.451-2.24,11.776-0.139,14.101,4.704c2.336,4.843,0.907,10.933-4.181,14.155
	c-4.864,3.093-11.957,1.408-14.763-4.341C25.205,380.793,27.392,374.286,32.843,372.046z"/>
<path d="M21.984,328.58c5.728-0.427,11.104,3.52,11.957,8.832c0.597,5.355-2.645,10.699-8.416,12.171
	c-5.643,1.451-11.872-2.336-12.64-8.704C11.883,334.542,15.968,329.038,21.984,328.58z"/>
</svg>